<svg width="244" height="40" viewBox="0 0 244 40" fill="none" xmlns="http://www.w3.org/2000/svg">
<g id="Social media">
<g id="linkdin">
<path id="Ellipse 14" opacity="0.3" d="M243.346 19.9999C243.346 30.2337 234.965 38.5383 224.615 38.5383C214.266 38.5383 205.885 30.2337 205.885 19.9999C205.885 9.7661 214.266 1.46143 224.615 1.46143C234.965 1.46143 243.346 9.7661 243.346 19.9999Z" stroke="white"/>
<g id="Group 347">
<path id="Vector" d="M227.18 17.4617C228.2 17.4617 229.178 17.8628 229.9 18.5769C230.621 19.291 231.026 20.2595 231.026 21.2694V25.7117H228.462V21.2694C228.462 20.9327 228.327 20.6099 228.087 20.3719C227.846 20.1339 227.52 20.0001 227.18 20.0001C226.84 20.0001 226.514 20.1339 226.274 20.3719C226.033 20.6099 225.898 20.9327 225.898 21.2694V25.7117H223.334V21.2694C223.334 20.2595 223.739 19.291 224.46 18.5769C225.182 17.8628 226.16 17.4617 227.18 17.4617Z" stroke="white" stroke-linecap="round" stroke-linejoin="round"/>
<path id="Vector_2" d="M220.77 18.0959H218.206V25.7113H220.77V18.0959Z" stroke="white" stroke-linecap="round" stroke-linejoin="round"/>
<path id="Vector_3" d="M219.488 16.1923C220.196 16.1923 220.77 15.624 220.77 14.923C220.77 14.2221 220.196 13.6538 219.488 13.6538C218.78 13.6538 218.206 14.2221 218.206 14.923C218.206 15.624 218.78 16.1923 219.488 16.1923Z" stroke="white" stroke-linecap="round" stroke-linejoin="round"/>
</g>
</g>
<g id="instagram">
<path id="Ellipse 13" opacity="0.3" d="M174.885 19.9999C174.885 30.2337 166.503 38.5383 156.154 38.5383C145.804 38.5383 137.423 30.2337 137.423 19.9999C137.423 9.7661 145.804 1.46143 156.154 1.46143C166.503 1.46143 174.885 9.7661 174.885 19.9999Z" stroke="white"/>
<g id="Group 348">
<path id="Vector_4" d="M159.359 13.6538H152.949C151.179 13.6538 149.744 15.0744 149.744 16.8269V23.173C149.744 24.9255 151.179 26.3461 152.949 26.3461H159.359C161.129 26.3461 162.564 24.9255 162.564 23.173V16.8269C162.564 15.0744 161.129 13.6538 159.359 13.6538Z" stroke="white" stroke-linecap="round" stroke-linejoin="round"/>
<path id="Vector_5" d="M158.717 19.6004C158.796 20.1286 158.705 20.668 158.457 21.1419C158.208 21.6159 157.815 22.0002 157.333 22.2402C156.852 22.4803 156.306 22.5638 155.773 22.479C155.241 22.3942 154.749 22.1453 154.368 21.7678C153.986 21.3902 153.735 20.9032 153.649 20.3761C153.563 19.8489 153.648 19.3084 153.89 18.8315C154.133 18.3546 154.521 17.9655 155 17.7196C155.478 17.4737 156.023 17.3835 156.557 17.4618C157.101 17.5417 157.605 17.7927 157.994 18.1778C158.383 18.5629 158.636 19.0617 158.717 19.6004Z" stroke="white" stroke-linecap="round" stroke-linejoin="round"/>
<path id="Vector_6" d="M159.679 16.5098H159.686" stroke="white" stroke-linecap="round" stroke-linejoin="round"/>
</g>
</g>
<g id="facebook">
<path id="Ellipse 12" opacity="0.3" d="M106.423 19.9999C106.423 30.2337 98.0418 38.5383 87.6923 38.5383C77.3428 38.5383 68.9615 30.2337 68.9615 19.9999C68.9615 9.7661 77.3428 1.46143 87.6923 1.46143C98.0418 1.46143 106.423 9.7661 106.423 19.9999Z" stroke="white"/>
<path id="Vector_7" d="M90.8976 13.6538H88.9745C88.1245 13.6538 87.3092 13.9881 86.7082 14.5832C86.1071 15.1782 85.7694 15.9853 85.7694 16.8269V18.7307H83.8463V21.2692H85.7694V26.3461H88.3335V21.2692H90.2566L90.8976 18.7307H88.3335V16.8269C88.3335 16.6586 88.401 16.4972 88.5212 16.3781C88.6415 16.2591 88.8045 16.1923 88.9745 16.1923H90.8976V13.6538Z" stroke="white" stroke-linecap="round" stroke-linejoin="round"/>
</g>
<g id="twitter">
<path id="Ellipse 11" opacity="0.3" d="M37.9615 19.9999C37.9615 30.2337 29.5802 38.5383 19.2308 38.5383C8.8813 38.5383 0.5 30.2337 0.5 19.9999C0.5 9.7661 8.8813 1.46143 19.2308 1.46143C29.5802 1.46143 37.9615 9.7661 37.9615 19.9999Z" stroke="white"/>
<path id="Vector_8" d="M25.641 14.9295C25.0272 15.3581 24.3475 15.686 23.6282 15.9004C23.2421 15.461 22.7291 15.1495 22.1583 15.0081C21.5876 14.8668 20.9868 14.9023 20.4372 15.11C19.8876 15.3177 19.4157 15.6875 19.0852 16.1693C18.7548 16.6512 18.5818 17.2219 18.5897 17.8043V18.4389C17.4632 18.4678 16.347 18.2205 15.3404 17.7189C14.3338 17.2173 13.4681 16.4771 12.8205 15.5641C12.8205 15.5641 10.2564 21.2756 16.0256 23.8141C14.7055 24.7013 13.1328 25.1461 11.5385 25.0833C17.3077 28.2564 24.359 25.0833 24.359 17.7852C24.3584 17.6085 24.3412 17.4321 24.3077 17.2585C24.9619 16.6198 25.4236 15.8133 25.641 14.9295V14.9295Z" stroke="white" stroke-linecap="round" stroke-linejoin="round"/>
</g>
</g>
</svg>
