<svg width="38" height="69" viewBox="0 0 38 69" fill="none" xmlns="http://www.w3.org/2000/svg">
<rect width="38" height="69" fill="#251313"/>
<rect width="1440" height="6159" transform="translate(-1153 -1117)" fill="white"/>
<rect width="1440" height="800" transform="translate(-1153 -527)" fill="#F8F8F8"/>
<path fill-rule="evenodd" clip-rule="evenodd" d="M31.6279 -22.5843C30.9611 -22.4959 30.3756 -22.0986 30.0488 -21.5129L27.413 -16.785L12.3185 -17.6869C11.6051 -17.7296 10.9179 -17.4126 10.489 -16.8431L3.58739 -7.67455C3.21672 -7.18217 3.07909 -6.55359 3.21025 -5.95213L4.1349 -1.7172L0.078949 -5.08474C-0.394012 -5.47703 -1.01425 -5.64609 -1.62177 -5.54832L-10.6126 -4.10324L-13.1227 -7.1052C-13.8479 -7.97201 -15.1276 -8.12084 -16.0337 -7.44376L-19.404 -4.92522L-20.1624 -6.18406C-20.4783 -6.70799 -21.0058 -7.07056 -21.6096 -7.17878L-61.7027 -14.3826C-61.8004 -14.4006 -68.8502 -14.1937 -82.852 -13.7618C-83.2976 -13.7478 -83.7275 -13.5947 -84.081 -13.3241L-92.6262 -6.77439C-93.3444 -6.22373 -93.6337 -5.2803 -93.3472 -4.4237L-88.2097 10.9313L-88.4642 18.2716L-91.3004 18.6751C-91.8022 18.7464 -92.262 18.9939 -92.597 19.373L-107.057 35.7453C-107.508 36.2562 -107.686 36.952 -107.535 37.6158L-105.891 44.8196C-105.871 44.9091 -105.562 45.6355 -104.963 46.9987L-106.533 46.5639C-107.538 46.2856 -108.598 46.7743 -109.035 47.7181L-114.951 60.4889C-115.368 61.3904 -115.102 62.4599 -114.309 63.0623L-101.821 72.5588C-101.472 72.8236 -101.05 72.9748 -100.612 72.9916L-83.6488 73.6418L-78.3306 74.4781L-75.886 77.4542C-75.275 78.1983 -74.2379 78.4397 -73.3593 78.0422L-69.8498 76.4523L-54.1777 71.2474C-54.1106 71.2248 -48.5195 68.3952 -37.4043 62.7585L-15.3594 73.2894L-13.241 85.9557C-13.1819 86.3082 -13.0343 86.6401 -12.812 86.9205L-3.51878 98.6501L-4.05591 102.397L-16.3027 99.9015C-16.9396 99.7719 -17.6009 99.9395 -18.0983 100.356C-18.5956 100.773 -18.8745 101.394 -18.8554 102.041L-18.5489 112.427L-26.3117 122.638C-26.8521 123.349 -26.8882 124.321 -26.402 125.07L-22.7876 130.636C-22.2097 131.526 -21.061 131.854 -20.0978 131.404L-10.9875 127.149L-7.77205 130.6C-7.42581 130.971 -6.95733 131.207 -6.45158 131.264L13.9238 133.556C14.3577 133.605 14.7962 133.52 15.1798 133.312L48.3724 115.303C48.7678 115.088 49.0846 114.754 49.2773 114.349L51.2076 110.287L56.6328 113.694L55.1628 113.979C54.3522 114.136 53.7063 114.747 53.5057 115.545L52.4262 119.849L38.4995 126.942C37.7642 127.317 37.3129 128.082 37.3418 128.904C37.3708 129.727 37.8747 130.458 38.6345 130.781L52.7057 136.746L52.1312 147.049C52.0674 148.194 52.9279 149.181 54.074 149.279L65.5759 150.262C66.1345 150.309 66.6893 150.135 67.1197 149.777L78.951 139.954C78.9735 139.935 80.722 138.291 84.1965 135.022L87.0982 135.504C87.158 135.514 90.2058 135.633 96.2418 135.861C97.1308 135.893 97.9464 135.371 98.2864 134.552L102.23 125.057C102.497 124.412 102.43 123.678 102.049 123.093C101.669 122.508 101.024 122.147 100.325 122.127L88.8228 121.799C88.3566 121.786 87.8988 121.926 87.52 122.197L82.7971 125.579L77.9505 125.689L77.0311 121.796C76.9243 121.344 76.6717 120.939 76.3121 120.644L75.0311 119.593L94.1057 118.833C94.9627 118.798 95.7151 118.255 96.0143 117.454L102.013 101.41L115.556 92.6223C116.059 92.2965 116.4 91.7747 116.496 91.1853L118.266 80.311L122.663 78.7645C123.182 78.5816 123.611 78.2049 123.857 77.7137L124.881 75.6743L137.299 76.2635C137.864 76.2901 138.416 76.0915 138.834 75.7116C139.252 75.3317 139.501 74.8017 139.525 74.2387L140.183 59.1757C140.217 58.3828 139.805 57.637 139.113 57.2432L138.026 56.6241L138.465 52.6896L144.031 45.2933C144.689 44.4195 144.573 43.191 143.763 42.4548L132.59 32.3039C132.404 32.1358 132.191 32.0015 131.959 31.9073L114.212 24.7038C113.276 24.324 112.201 24.6527 111.64 25.4904L110.655 26.9625L103.592 17.8405C103.003 17.0799 101.975 16.8089 101.085 17.18L91.9386 21.002L84.3399 16.0508C83.6468 15.5971 82.7523 15.5859 82.048 16.0221L78.9167 17.9713L71.666 0.632347C71.3024 -0.237352 70.4064 -0.763641 69.4666 -0.659542L59.439 0.45013L57.7871 -5.51872L60.6805 -6.75485C61.237 -6.99261 61.6656 -7.45536 61.8587 -8.02721C62.0519 -8.59905 61.9914 -9.22581 61.6924 -9.75048L53.4766 -24.1582C53.081 -24.8516 52.3283 -25.2652 51.5286 -25.2285C51.4876 -25.2269 44.854 -24.3455 31.6279 -22.5843Z" fill="url(#paint0_linear_0_1)"/>
<path d="M-116.873 -1.37297C-68.7498 -6.90645 -26.9806 7.99375 8.43427 43.3277" stroke="url(#paint1_linear_0_1)" stroke-width="1.9552" stroke-linecap="round" stroke-dasharray="2.93 6.84"/>
<path d="M-139.842 71.202C-98.8459 29.3977 -51.8822 20.7284 1.04967 45.1941" stroke="url(#paint2_linear_0_1)" stroke-width="1.9552" stroke-linecap="round" stroke-dasharray="2.93 6.84"/>
<path d="M17.0675 11.6412C22.1397 14.5605 26.2383 21.6369 26.2217 27.448C26.2052 33.2579 22.0799 35.6013 17.0077 32.6822C11.9343 29.7624 7.8358 22.686 7.85241 16.8761C7.86888 11.0648 11.9942 8.72129 17.0675 11.6412Z" fill="#ADBDE1"/>
<path d="M22.8097 29.3143C17.7363 26.3945 13.6378 19.3181 13.6543 13.5082C13.6576 12.3669 13.8213 11.3616 14.1176 10.5014C10.4874 9.82167 7.86545 12.2466 7.85241 16.876C7.83593 22.6859 11.9345 29.7623 17.0077 32.6821C21.0838 35.0281 24.5465 33.9729 25.7585 30.4538C24.832 30.2802 23.841 29.9079 22.8097 29.3143Z" fill="url(#paint3_linear_0_1)"/>
<path d="M37.0419 55.1395H37.0384C37.0385 54.5581 36.9589 53.9768 36.7924 53.4025C36.7924 53.4025 36.7878 53.3979 36.7878 53.3933C36.6678 52.9845 36.5065 52.5754 36.2991 52.1709C36.2946 52.1616 36.2899 52.1571 36.2853 52.1481C35.4602 50.5442 33.9526 49.037 31.7628 47.7778C24.7279 43.7246 13.2123 43.7246 6.1728 47.7778C3.98311 49.0415 2.47567 50.5487 1.65036 52.1526C1.64583 52.1571 1.64117 52.1663 1.64117 52.1711C1.44294 52.5618 1.2815 52.9568 1.16633 53.3522C0.988827 53.943 0.902069 54.5413 0.901657 55.1396L0.90097 55.1566C0.90097 55.1716 0.900833 55.1865 0.90097 55.2017V58.3982C0.899186 61.0666 2.65564 63.7368 6.17267 65.7602C13.2121 69.8133 24.7278 69.8133 31.7627 65.7602C35.2831 63.7375 37.0375 61.0673 37.0381 58.3982H37.0416L37.0419 55.1395Z" fill="#081E54"/>
<path d="M31.7635 62.5013C24.7286 66.5544 13.2128 66.5544 6.17349 62.5013C1.86767 60.0245 0.198938 56.578 1.16701 53.3519C1.28233 52.9567 1.44363 52.5615 1.64185 52.171C1.64185 52.1664 1.64638 52.1573 1.65105 52.1525C2.47622 50.5487 3.98365 49.0414 6.17349 47.7776C13.2129 43.7245 24.7286 43.7245 31.7635 47.7776C33.9532 49.0367 35.4606 50.5442 36.2859 52.1478C36.2906 52.1571 36.2953 52.1615 36.2997 52.1708C36.5071 52.5752 36.6685 52.9841 36.7884 53.3932C36.7884 53.3977 36.7929 53.4024 36.7929 53.4024C37.7242 56.6146 36.0508 60.0383 31.7635 62.5013Z" fill="#29407A"/>
<path d="M17.0833 6.05874C25.1348 10.6926 31.6418 21.9259 31.6155 31.1498C31.5893 40.3735 17.6708 56.2401 16.9383 57.0753C16.2128 55.401 2.42888 23.5911 2.45524 14.3674C2.48132 5.1434 9.03079 1.42431 17.0833 6.05874ZM17.0077 32.6822C22.0799 35.6014 26.2052 33.2579 26.2217 27.448C26.2381 21.6367 22.1396 14.5603 17.0675 11.6412C11.9942 8.72141 7.86888 11.0648 7.85241 16.8761C7.83579 22.6859 11.9343 29.7624 17.0077 32.6822Z" fill="url(#paint4_linear_0_1)"/>
<path d="M22.9147 2.68067C18.8623 0.348472 15.1904 0.131714 12.5392 1.66763L6.70792 5.04571C9.35914 3.50993 13.0309 3.72656 17.0834 6.05876C25.135 10.6926 31.6419 21.9259 31.6157 31.1499C31.5893 40.3736 17.6708 56.2401 16.9383 57.0753L22.7696 53.6972C23.5021 52.8622 37.4205 36.9956 37.4468 27.7716C37.4731 18.5478 30.9662 7.31456 22.9147 2.68067Z" fill="url(#paint5_linear_0_1)"/>
<defs>
<linearGradient id="paint0_linear_0_1" x1="-35229" y1="-2671.79" x2="17381.4" y2="42823.6" gradientUnits="userSpaceOnUse">
<stop stop-color="#93A9D6"/>
<stop offset="1" stop-color="#E0E7F7"/>
</linearGradient>
<linearGradient id="paint1_linear_0_1" x1="-7433.14" y1="4427.1" x2="2085.34" y2="9682.04" gradientUnits="userSpaceOnUse">
<stop stop-color="#6494D4"/>
<stop offset="1" stop-color="#4565A8"/>
</linearGradient>
<linearGradient id="paint2_linear_0_1" x1="320.497" y1="3915.89" x2="4038.87" y2="-3399.55" gradientUnits="userSpaceOnUse">
<stop stop-color="#6494D4"/>
<stop offset="1" stop-color="#4565A8"/>
</linearGradient>
<linearGradient id="paint3_linear_0_1" x1="2572.54" y1="2906.35" x2="-1316.82" y2="1177.68" gradientUnits="userSpaceOnUse">
<stop stop-color="#6BA3DE"/>
<stop offset="1" stop-color="#202873"/>
</linearGradient>
<linearGradient id="paint4_linear_0_1" x1="1227.78" y1="-310.673" x2="1227.78" y2="8846.17" gradientUnits="userSpaceOnUse">
<stop stop-color="#6BA3DE"/>
<stop offset="1" stop-color="#202873"/>
</linearGradient>
<linearGradient id="paint5_linear_0_1" x1="4409.43" y1="6935.2" x2="-1831.23" y2="-1271.4" gradientUnits="userSpaceOnUse">
<stop stop-color="#6BA3DE"/>
<stop offset="1" stop-color="#202873"/>
</linearGradient>
</defs>
</svg>
