<svg width="261" height="177" viewBox="0 0 261 177" fill="none" xmlns="http://www.w3.org/2000/svg">
<path fill-rule="evenodd" clip-rule="evenodd" d="M147.628 3.41568C146.961 3.50408 146.376 3.90137 146.049 4.48713L143.413 9.21496L128.318 8.31308C127.605 8.2704 126.918 8.58737 126.489 9.15691L119.587 18.3254C119.217 18.8178 119.079 19.4464 119.21 20.0479L120.135 24.2828L116.079 20.9153C115.606 20.523 114.986 20.3539 114.378 20.4517L105.387 21.8968L102.877 18.8948C102.152 18.028 100.872 17.8792 99.9663 18.5562L96.596 21.0748L95.8376 19.8159C95.5217 19.292 94.9942 18.9294 94.3904 18.8212L54.2973 11.6174C54.1996 11.5994 47.1498 11.8063 33.148 12.2382C32.7024 12.2522 32.2725 12.4053 31.919 12.6759L23.3738 19.2256C22.6556 19.7763 22.3663 20.7197 22.6528 21.5763L27.7903 36.9313L27.5358 44.2716L24.6996 44.6751C24.1978 44.7464 23.738 44.9939 23.403 45.373L8.94329 61.7453C8.4919 62.2562 8.31413 62.952 8.46539 63.6158L10.109 70.8196C10.1292 70.9091 10.4385 71.6355 11.0367 72.9987L9.46685 72.5639C8.46172 72.2856 7.40233 72.7743 6.96511 73.7181L1.04949 86.4889C0.632084 87.3904 0.898467 88.4599 1.6905 89.0623L14.1794 98.5588C14.5278 98.8236 14.9498 98.9748 15.3877 98.9916L32.3512 99.6418L37.6694 100.478L40.114 103.454C40.725 104.198 41.7621 104.44 42.6407 104.042L46.1502 102.452L61.8223 97.2474C61.8894 97.2248 67.4805 94.3952 78.5957 88.7585L100.641 99.2894L102.759 111.956C102.818 112.308 102.966 112.64 103.188 112.92L112.481 124.65L111.944 128.397L99.6973 125.901C99.0604 125.772 98.3991 125.939 97.9017 126.356C97.4044 126.773 97.1255 127.394 97.1446 128.041L97.4511 138.427L89.6883 148.638C89.1479 149.349 89.1118 150.321 89.598 151.07L93.2124 156.636C93.7903 157.526 94.939 157.854 95.9022 157.404L105.012 153.149L108.228 156.6C108.574 156.971 109.043 157.207 109.548 157.264L129.924 159.556C130.358 159.605 130.796 159.52 131.18 159.312L164.372 141.303C164.768 141.088 165.085 140.754 165.277 140.349L167.208 136.287L172.633 139.694L171.163 139.979C170.352 140.136 169.706 140.747 169.506 141.545L168.426 145.849L154.499 152.942C153.764 153.317 153.313 154.082 153.342 154.904C153.371 155.727 153.875 156.458 154.635 156.781L168.706 162.746L168.131 173.049C168.067 174.194 168.928 175.181 170.074 175.279L181.576 176.262C182.134 176.309 182.689 176.135 183.12 175.777L194.951 165.954C194.974 165.935 196.722 164.291 200.196 161.022L203.098 161.504C203.158 161.514 206.206 161.633 212.242 161.861C213.131 161.893 213.946 161.371 214.286 160.552L218.23 151.057C218.497 150.412 218.43 149.678 218.049 149.093C217.669 148.508 217.024 148.147 216.325 148.127L204.823 147.799C204.357 147.786 203.899 147.926 203.52 148.197L198.797 151.579L193.951 151.689L193.031 147.796C192.924 147.344 192.672 146.939 192.312 146.644L191.031 145.593L210.106 144.833C210.963 144.798 211.715 144.255 212.014 143.454L218.013 127.41L231.556 118.622C232.059 118.296 232.4 117.775 232.496 117.185L234.266 106.311L238.663 104.764C239.182 104.582 239.611 104.205 239.857 103.714L240.881 101.674L253.299 102.263C253.864 102.29 254.416 102.092 254.834 101.712C255.252 101.332 255.501 100.802 255.525 100.239L256.183 85.1757C256.217 84.3828 255.805 83.637 255.113 83.2432L254.026 82.6241L254.465 78.6896L260.031 71.2933C260.689 70.4195 260.573 69.191 259.763 68.4548L248.59 58.3039C248.404 58.1358 248.191 58.0015 247.959 57.9073L230.212 50.7038C229.276 50.324 228.201 50.6527 227.64 51.4904L226.655 52.9625L219.592 43.8405C219.003 43.0799 217.975 42.8089 217.085 43.18L207.939 47.002L200.34 42.0508C199.647 41.5971 198.752 41.5859 198.048 42.0221L194.917 43.9713L187.666 26.6323C187.302 25.7626 186.406 25.2364 185.467 25.3405L175.439 26.4501L173.787 20.4813L176.68 19.2451C177.237 19.0074 177.666 18.5446 177.859 17.9728C178.052 17.4009 177.991 16.7742 177.692 16.2495L169.477 1.84185C169.081 1.14839 168.328 0.734813 167.529 0.771546C167.488 0.773102 160.854 1.65448 147.628 3.41568Z" fill="url(#paint0_linear_1_554)"/>
<defs>
<linearGradient id="paint0_linear_1_554" x1="-35113" y1="-2645.79" x2="17497.4" y2="42849.6" gradientUnits="userSpaceOnUse">
<stop stop-color="#93A9D6"/>
<stop offset="1" stop-color="#E0E7F7"/>
</linearGradient>
</defs>
</svg>
